<svg xmlns="http://www.w3.org/2000/svg" width="512" height="512" viewBox="0 0 512 512" fill="none">
  <rect width="512" height="512" rx="112" fill="#e8614a"/>
  <path d="M144 170.667C144 158.884 153.551 149.333 165.333 149.333H346.667C358.449 149.333 368 158.884 368 170.667V186.667H144V170.667Z" fill="#ffffff"/>
  <path d="M149.333 208H362.667V277.333C362.667 324.461 324.461 362.667 277.333 362.667H234.667C187.539 362.667 149.333 324.461 149.333 277.333V208Z" fill="#ffffff"/>
  <circle cx="208" cy="250.667" r="21.333" fill="#e8614a"/>
  <circle cx="304" cy="250.667" r="21.333" fill="#e8614a"/>
  <path d="M202.667 314.667C216 330.667 240 341.333 256 341.333C272 341.333 296 330.667 309.333 314.667" stroke="#e8614a" stroke-width="21.333" stroke-linecap="round"/>
</svg>
